<svg xmlns="http://www.w3.org/2000/svg" width="1200" height="1500" viewBox="0 0 1200 1500">
<rect width="1200" height="1500" fill="#fafafa"/>
<g stroke="rgba(10,10,10,0.08)" stroke-width="1"><line x1="48" y1="0" x2="48" y2="1500"/><line x1="96" y1="0" x2="96" y2="1500"/><line x1="144" y1="0" x2="144" y2="1500"/><line x1="192" y1="0" x2="192" y2="1500"/><line x1="240" y1="0" x2="240" y2="1500"/><line x1="288" y1="0" x2="288" y2="1500"/><line x1="336" y1="0" x2="336" y2="1500"/><line x1="384" y1="0" x2="384" y2="1500"/><line x1="432" y1="0" x2="432" y2="1500"/><line x1="480" y1="0" x2="480" y2="1500"/><line x1="528" y1="0" x2="528" y2="1500"/><line x1="576" y1="0" x2="576" y2="1500"/><line x1="624" y1="0" x2="624" y2="1500"/><line x1="672" y1="0" x2="672" y2="1500"/><line x1="720" y1="0" x2="720" y2="1500"/><line x1="768" y1="0" x2="768" y2="1500"/><line x1="816" y1="0" x2="816" y2="1500"/><line x1="864" y1="0" x2="864" y2="1500"/><line x1="912" y1="0" x2="912" y2="1500"/><line x1="960" y1="0" x2="960" y2="1500"/><line x1="1008" y1="0" x2="1008" y2="1500"/><line x1="1056" y1="0" x2="1056" y2="1500"/><line x1="1104" y1="0" x2="1104" y2="1500"/><line x1="1152" y1="0" x2="1152" y2="1500"/><line x1="0" y1="48" x2="1200" y2="48"/><line x1="0" y1="96" x2="1200" y2="96"/><line x1="0" y1="144" x2="1200" y2="144"/><line x1="0" y1="192" x2="1200" y2="192"/><line x1="0" y1="240" x2="1200" y2="240"/><line x1="0" y1="288" x2="1200" y2="288"/><line x1="0" y1="336" x2="1200" y2="336"/><line x1="0" y1="384" x2="1200" y2="384"/><line x1="0" y1="432" x2="1200" y2="432"/><line x1="0" y1="480" x2="1200" y2="480"/><line x1="0" y1="528" x2="1200" y2="528"/><line x1="0" y1="576" x2="1200" y2="576"/><line x1="0" y1="624" x2="1200" y2="624"/><line x1="0" y1="672" x2="1200" y2="672"/><line x1="0" y1="720" x2="1200" y2="720"/><line x1="0" y1="768" x2="1200" y2="768"/><line x1="0" y1="816" x2="1200" y2="816"/><line x1="0" y1="864" x2="1200" y2="864"/><line x1="0" y1="912" x2="1200" y2="912"/><line x1="0" y1="960" x2="1200" y2="960"/><line x1="0" y1="1008" x2="1200" y2="1008"/><line x1="0" y1="1056" x2="1200" y2="1056"/><line x1="0" y1="1104" x2="1200" y2="1104"/><line x1="0" y1="1152" x2="1200" y2="1152"/><line x1="0" y1="1200" x2="1200" y2="1200"/><line x1="0" y1="1248" x2="1200" y2="1248"/><line x1="0" y1="1296" x2="1200" y2="1296"/><line x1="0" y1="1344" x2="1200" y2="1344"/><line x1="0" y1="1392" x2="1200" y2="1392"/><line x1="0" y1="1440" x2="1200" y2="1440"/><line x1="0" y1="1488" x2="1200" y2="1488"/></g>
<rect x="24" y="24" width="1152" height="1452" fill="none" stroke="rgba(10,10,10,0.2)" stroke-width="1"/>
<rect x="362" y="1137" width="442" height="320" fill="none" stroke="#0a0a0a" stroke-width="3"/><rect x="376" y="1151" width="414" height="292" fill="none" stroke="#0a0a0a" stroke-width="1" opacity="0.45"/><line x1="502" y1="1137" x2="502" y2="1197" stroke="#0a0a0a" stroke-width="1.5"/><path d="M 502 1137 A 60 60 0 0 1 562 1197" fill="none" stroke="#0a0a0a" stroke-width="1"/><line x1="495" y1="1457" x2="671" y2="1457" stroke="#fafafa" stroke-width="7"/><line x1="495" y1="1457" x2="671" y2="1457" stroke="#0a0a0a" stroke-width="1"/><rect x="780" y="1109" width="387" height="230" fill="none" stroke="#0a0a0a" stroke-width="3"/><rect x="794" y="1123" width="359" height="202" fill="none" stroke="#0a0a0a" stroke-width="1" opacity="0.45"/><line x1="1076" y1="1109" x2="1076" y2="1169" stroke="#0a0a0a" stroke-width="1.5"/><path d="M 1076 1109 A 60 60 0 0 1 1136 1169" fill="none" stroke="#0a0a0a" stroke-width="1"/><line x1="896" y1="1339" x2="1051" y2="1339" stroke="#fafafa" stroke-width="7"/><line x1="896" y1="1339" x2="1051" y2="1339" stroke="#0a0a0a" stroke-width="1"/><rect x="477" y="641" width="303" height="391" fill="none" stroke="#0a0a0a" stroke-width="3"/><rect x="491" y="655" width="275" height="363" fill="none" stroke="#0a0a0a" stroke-width="1" opacity="0.45"/><line x1="708" y1="641" x2="708" y2="701" stroke="#0a0a0a" stroke-width="1.5"/><path d="M 708 641 A 60 60 0 0 1 768 701" fill="none" stroke="#0a0a0a" stroke-width="1"/><line x1="568" y1="1031" x2="689" y2="1031" stroke="#fafafa" stroke-width="7"/><line x1="568" y1="1031" x2="689" y2="1031" stroke="#0a0a0a" stroke-width="1"/><rect x="825" y="1184" width="494" height="414" fill="none" stroke="#0a0a0a" stroke-width="3"/><rect x="839" y="1198" width="466" height="386" fill="none" stroke="#0a0a0a" stroke-width="1" opacity="0.45"/><line x1="1036" y1="1184" x2="1036" y2="1244" stroke="#0a0a0a" stroke-width="1.5"/><path d="M 1036 1184 A 60 60 0 0 1 1096 1244" fill="none" stroke="#0a0a0a" stroke-width="1"/><line x1="974" y1="1597" x2="1171" y2="1597" stroke="#fafafa" stroke-width="7"/><line x1="974" y1="1597" x2="1171" y2="1597" stroke="#0a0a0a" stroke-width="1"/><g transform="translate(1060,140)" stroke="#0a0a0a" fill="none" stroke-width="1.5"><circle r="34"/><line x1="0" y1="20" x2="0" y2="-20"/><polygon points="0,-30 7,-12 -7,-12" fill="#0a0a0a" stroke="none"/><text y="-44" text-anchor="middle" font-size="22" fill="#0a0a0a" stroke="none" font-family="monospace">N</text></g><g transform="translate(120,1400)"><rect width="200" height="8" fill="none" stroke="#0a0a0a"/><rect width="50" height="8" fill="#0a0a0a"/><rect x="100" width="50" height="8" fill="#0a0a0a"/><text y="34" font-size="20" font-family="monospace" fill="#0a0a0a">0 ——— 5M</text></g>
<text x="48" y="1404" font-family="monospace" font-size="26" letter-spacing="4" fill="#0a0a0a">PLAN 05 — 1:100</text>
<text x="48" y="1440" font-family="monospace" font-size="20" letter-spacing="3" fill="#8a8a8a">CASA LITORAL — PLACEHOLDER</text>
</svg>