<svg xmlns="http://www.w3.org/2000/svg" width="1600" height="1200" viewBox="0 0 1600 1200">
<rect width="1600" height="1200" fill="#fafafa"/>
<g stroke="rgba(10,10,10,0.08)" stroke-width="1"><line x1="48" y1="0" x2="48" y2="1200"/><line x1="96" y1="0" x2="96" y2="1200"/><line x1="144" y1="0" x2="144" y2="1200"/><line x1="192" y1="0" x2="192" y2="1200"/><line x1="240" y1="0" x2="240" y2="1200"/><line x1="288" y1="0" x2="288" y2="1200"/><line x1="336" y1="0" x2="336" y2="1200"/><line x1="384" y1="0" x2="384" y2="1200"/><line x1="432" y1="0" x2="432" y2="1200"/><line x1="480" y1="0" x2="480" y2="1200"/><line x1="528" y1="0" x2="528" y2="1200"/><line x1="576" y1="0" x2="576" y2="1200"/><line x1="624" y1="0" x2="624" y2="1200"/><line x1="672" y1="0" x2="672" y2="1200"/><line x1="720" y1="0" x2="720" y2="1200"/><line x1="768" y1="0" x2="768" y2="1200"/><line x1="816" y1="0" x2="816" y2="1200"/><line x1="864" y1="0" x2="864" y2="1200"/><line x1="912" y1="0" x2="912" y2="1200"/><line x1="960" y1="0" x2="960" y2="1200"/><line x1="1008" y1="0" x2="1008" y2="1200"/><line x1="1056" y1="0" x2="1056" y2="1200"/><line x1="1104" y1="0" x2="1104" y2="1200"/><line x1="1152" y1="0" x2="1152" y2="1200"/><line x1="1200" y1="0" x2="1200" y2="1200"/><line x1="1248" y1="0" x2="1248" y2="1200"/><line x1="1296" y1="0" x2="1296" y2="1200"/><line x1="1344" y1="0" x2="1344" y2="1200"/><line x1="1392" y1="0" x2="1392" y2="1200"/><line x1="1440" y1="0" x2="1440" y2="1200"/><line x1="1488" y1="0" x2="1488" y2="1200"/><line x1="1536" y1="0" x2="1536" y2="1200"/><line x1="1584" y1="0" x2="1584" y2="1200"/><line x1="0" y1="48" x2="1600" y2="48"/><line x1="0" y1="96" x2="1600" y2="96"/><line x1="0" y1="144" x2="1600" y2="144"/><line x1="0" y1="192" x2="1600" y2="192"/><line x1="0" y1="240" x2="1600" y2="240"/><line x1="0" y1="288" x2="1600" y2="288"/><line x1="0" y1="336" x2="1600" y2="336"/><line x1="0" y1="384" x2="1600" y2="384"/><line x1="0" y1="432" x2="1600" y2="432"/><line x1="0" y1="480" x2="1600" y2="480"/><line x1="0" y1="528" x2="1600" y2="528"/><line x1="0" y1="576" x2="1600" y2="576"/><line x1="0" y1="624" x2="1600" y2="624"/><line x1="0" y1="672" x2="1600" y2="672"/><line x1="0" y1="720" x2="1600" y2="720"/><line x1="0" y1="768" x2="1600" y2="768"/><line x1="0" y1="816" x2="1600" y2="816"/><line x1="0" y1="864" x2="1600" y2="864"/><line x1="0" y1="912" x2="1600" y2="912"/><line x1="0" y1="960" x2="1600" y2="960"/><line x1="0" y1="1008" x2="1600" y2="1008"/><line x1="0" y1="1056" x2="1600" y2="1056"/><line x1="0" y1="1104" x2="1600" y2="1104"/><line x1="0" y1="1152" x2="1600" y2="1152"/></g>
<rect x="24" y="24" width="1552" height="1152" fill="none" stroke="rgba(10,10,10,0.2)" stroke-width="1"/>
<rect x="1068" y="391" width="364" height="253" fill="none" stroke="#0a0a0a" stroke-width="3"/><rect x="1082" y="405" width="336" height="225" fill="none" stroke="#0a0a0a" stroke-width="1" opacity="0.45"/><line x1="1278" y1="391" x2="1278" y2="451" stroke="#0a0a0a" stroke-width="1.5"/><path d="M 1278 391 A 60 60 0 0 1 1338 451" fill="none" stroke="#0a0a0a" stroke-width="1"/><line x1="1177" y1="644" x2="1323" y2="644" stroke="#fafafa" stroke-width="7"/><line x1="1177" y1="644" x2="1323" y2="644" stroke="#0a0a0a" stroke-width="1"/><rect x="497" y="400" width="255" height="281" fill="none" stroke="#0a0a0a" stroke-width="3"/><rect x="511" y="414" width="227" height="253" fill="none" stroke="#0a0a0a" stroke-width="1" opacity="0.45"/><line x1="623" y1="400" x2="623" y2="460" stroke="#0a0a0a" stroke-width="1.5"/><path d="M 623 400 A 60 60 0 0 1 683 460" fill="none" stroke="#0a0a0a" stroke-width="1"/><line x1="573" y1="680" x2="675" y2="680" stroke="#fafafa" stroke-width="7"/><line x1="573" y1="680" x2="675" y2="680" stroke="#0a0a0a" stroke-width="1"/><rect x="704" y="640" width="358" height="219" fill="none" stroke="#0a0a0a" stroke-width="3"/><rect x="718" y="654" width="330" height="191" fill="none" stroke="#0a0a0a" stroke-width="1" opacity="0.45"/><line x1="984" y1="640" x2="984" y2="700" stroke="#0a0a0a" stroke-width="1.5"/><path d="M 984 640 A 60 60 0 0 1 1044 700" fill="none" stroke="#0a0a0a" stroke-width="1"/><line x1="811" y1="858" x2="955" y2="858" stroke="#fafafa" stroke-width="7"/><line x1="811" y1="858" x2="955" y2="858" stroke="#0a0a0a" stroke-width="1"/><rect x="139" y="545" width="385" height="278" fill="none" stroke="#0a0a0a" stroke-width="3"/><rect x="153" y="559" width="357" height="250" fill="none" stroke="#0a0a0a" stroke-width="1" opacity="0.45"/><line x1="285" y1="545" x2="285" y2="605" stroke="#0a0a0a" stroke-width="1.5"/><path d="M 285 545 A 60 60 0 0 1 345 605" fill="none" stroke="#0a0a0a" stroke-width="1"/><line x1="254" y1="823" x2="408" y2="823" stroke="#fafafa" stroke-width="7"/><line x1="254" y1="823" x2="408" y2="823" stroke="#0a0a0a" stroke-width="1"/><rect x="979" y="466" width="505" height="229" fill="none" stroke="#0a0a0a" stroke-width="3"/><rect x="993" y="480" width="477" height="201" fill="none" stroke="#0a0a0a" stroke-width="1" opacity="0.45"/><line x1="1133" y1="466" x2="1133" y2="526" stroke="#0a0a0a" stroke-width="1.5"/><path d="M 1133 466 A 60 60 0 0 1 1193 526" fill="none" stroke="#0a0a0a" stroke-width="1"/><line x1="1131" y1="695" x2="1333" y2="695" stroke="#fafafa" stroke-width="7"/><line x1="1131" y1="695" x2="1333" y2="695" stroke="#0a0a0a" stroke-width="1"/><rect x="1004" y="506" width="215" height="172" fill="none" stroke="#0a0a0a" stroke-width="3"/><rect x="1018" y="520" width="187" height="144" fill="none" stroke="#0a0a0a" stroke-width="1" opacity="0.45"/><line x1="1101" y1="506" x2="1101" y2="566" stroke="#0a0a0a" stroke-width="1.5"/><path d="M 1101 506 A 60 60 0 0 1 1161 566" fill="none" stroke="#0a0a0a" stroke-width="1"/><line x1="1069" y1="678" x2="1155" y2="678" stroke="#fafafa" stroke-width="7"/><line x1="1069" y1="678" x2="1155" y2="678" stroke="#0a0a0a" stroke-width="1"/><g transform="translate(1460,140)" stroke="#0a0a0a" fill="none" stroke-width="1.5"><circle r="34"/><line x1="0" y1="20" x2="0" y2="-20"/><polygon points="0,-30 7,-12 -7,-12" fill="#0a0a0a" stroke="none"/><text y="-44" text-anchor="middle" font-size="22" fill="#0a0a0a" stroke="none" font-family="monospace">N</text></g><g transform="translate(120,1100)"><rect width="200" height="8" fill="none" stroke="#0a0a0a"/><rect width="50" height="8" fill="#0a0a0a"/><rect x="100" width="50" height="8" fill="#0a0a0a"/><text y="34" font-size="20" font-family="monospace" fill="#0a0a0a">0 ——— 5M</text></g>
<text x="48" y="1104" font-family="monospace" font-size="26" letter-spacing="4" fill="#0a0a0a">PLAN 03 — 1:100</text>
<text x="48" y="1140" font-family="monospace" font-size="20" letter-spacing="3" fill="#8a8a8a">PROJECT 03 — PLACEHOLDER</text>
</svg>