<svg xmlns="http://www.w3.org/2000/svg" width="1200" height="1500" viewBox="0 0 1200 1500">
<rect width="1200" height="1500" fill="#fafafa"/>
<g stroke="rgba(10,10,10,0.08)" stroke-width="1"><line x1="48" y1="0" x2="48" y2="1500"/><line x1="96" y1="0" x2="96" y2="1500"/><line x1="144" y1="0" x2="144" y2="1500"/><line x1="192" y1="0" x2="192" y2="1500"/><line x1="240" y1="0" x2="240" y2="1500"/><line x1="288" y1="0" x2="288" y2="1500"/><line x1="336" y1="0" x2="336" y2="1500"/><line x1="384" y1="0" x2="384" y2="1500"/><line x1="432" y1="0" x2="432" y2="1500"/><line x1="480" y1="0" x2="480" y2="1500"/><line x1="528" y1="0" x2="528" y2="1500"/><line x1="576" y1="0" x2="576" y2="1500"/><line x1="624" y1="0" x2="624" y2="1500"/><line x1="672" y1="0" x2="672" y2="1500"/><line x1="720" y1="0" x2="720" y2="1500"/><line x1="768" y1="0" x2="768" y2="1500"/><line x1="816" y1="0" x2="816" y2="1500"/><line x1="864" y1="0" x2="864" y2="1500"/><line x1="912" y1="0" x2="912" y2="1500"/><line x1="960" y1="0" x2="960" y2="1500"/><line x1="1008" y1="0" x2="1008" y2="1500"/><line x1="1056" y1="0" x2="1056" y2="1500"/><line x1="1104" y1="0" x2="1104" y2="1500"/><line x1="1152" y1="0" x2="1152" y2="1500"/><line x1="0" y1="48" x2="1200" y2="48"/><line x1="0" y1="96" x2="1200" y2="96"/><line x1="0" y1="144" x2="1200" y2="144"/><line x1="0" y1="192" x2="1200" y2="192"/><line x1="0" y1="240" x2="1200" y2="240"/><line x1="0" y1="288" x2="1200" y2="288"/><line x1="0" y1="336" x2="1200" y2="336"/><line x1="0" y1="384" x2="1200" y2="384"/><line x1="0" y1="432" x2="1200" y2="432"/><line x1="0" y1="480" x2="1200" y2="480"/><line x1="0" y1="528" x2="1200" y2="528"/><line x1="0" y1="576" x2="1200" y2="576"/><line x1="0" y1="624" x2="1200" y2="624"/><line x1="0" y1="672" x2="1200" y2="672"/><line x1="0" y1="720" x2="1200" y2="720"/><line x1="0" y1="768" x2="1200" y2="768"/><line x1="0" y1="816" x2="1200" y2="816"/><line x1="0" y1="864" x2="1200" y2="864"/><line x1="0" y1="912" x2="1200" y2="912"/><line x1="0" y1="960" x2="1200" y2="960"/><line x1="0" y1="1008" x2="1200" y2="1008"/><line x1="0" y1="1056" x2="1200" y2="1056"/><line x1="0" y1="1104" x2="1200" y2="1104"/><line x1="0" y1="1152" x2="1200" y2="1152"/><line x1="0" y1="1200" x2="1200" y2="1200"/><line x1="0" y1="1248" x2="1200" y2="1248"/><line x1="0" y1="1296" x2="1200" y2="1296"/><line x1="0" y1="1344" x2="1200" y2="1344"/><line x1="0" y1="1392" x2="1200" y2="1392"/><line x1="0" y1="1440" x2="1200" y2="1440"/><line x1="0" y1="1488" x2="1200" y2="1488"/></g>
<rect x="24" y="24" width="1152" height="1452" fill="none" stroke="rgba(10,10,10,0.2)" stroke-width="1"/>
<rect x="871" y="356" width="358" height="255" fill="none" stroke="#0a0a0a" stroke-width="3"/><rect x="885" y="370" width="330" height="227" fill="none" stroke="#0a0a0a" stroke-width="1" opacity="0.45"/><line x1="981" y1="356" x2="981" y2="416" stroke="#0a0a0a" stroke-width="1.5"/><path d="M 981 356 A 60 60 0 0 1 1041 416" fill="none" stroke="#0a0a0a" stroke-width="1"/><line x1="979" y1="611" x2="1122" y2="611" stroke="#fafafa" stroke-width="7"/><line x1="979" y1="611" x2="1122" y2="611" stroke="#0a0a0a" stroke-width="1"/><rect x="500" y="510" width="288" height="188" fill="none" stroke="#0a0a0a" stroke-width="3"/><rect x="514" y="524" width="260" height="160" fill="none" stroke="#0a0a0a" stroke-width="1" opacity="0.45"/><line x1="569" y1="510" x2="569" y2="570" stroke="#0a0a0a" stroke-width="1.5"/><path d="M 569 510 A 60 60 0 0 1 629 570" fill="none" stroke="#0a0a0a" stroke-width="1"/><line x1="586" y1="698" x2="702" y2="698" stroke="#fafafa" stroke-width="7"/><line x1="586" y1="698" x2="702" y2="698" stroke="#0a0a0a" stroke-width="1"/><rect x="641" y="787" width="421" height="230" fill="none" stroke="#0a0a0a" stroke-width="3"/><rect x="655" y="801" width="393" height="202" fill="none" stroke="#0a0a0a" stroke-width="1" opacity="0.45"/><line x1="838" y1="787" x2="838" y2="847" stroke="#0a0a0a" stroke-width="1.5"/><path d="M 838 787 A 60 60 0 0 1 898 847" fill="none" stroke="#0a0a0a" stroke-width="1"/><line x1="768" y1="1017" x2="936" y2="1017" stroke="#fafafa" stroke-width="7"/><line x1="768" y1="1017" x2="936" y2="1017" stroke="#0a0a0a" stroke-width="1"/><rect x="212" y="1138" width="311" height="209" fill="none" stroke="#0a0a0a" stroke-width="3"/><rect x="226" y="1152" width="283" height="181" fill="none" stroke="#0a0a0a" stroke-width="1" opacity="0.45"/><line x1="412" y1="1138" x2="412" y2="1198" stroke="#0a0a0a" stroke-width="1.5"/><path d="M 412 1138 A 60 60 0 0 1 472 1198" fill="none" stroke="#0a0a0a" stroke-width="1"/><line x1="305" y1="1347" x2="429" y2="1347" stroke="#fafafa" stroke-width="7"/><line x1="305" y1="1347" x2="429" y2="1347" stroke="#0a0a0a" stroke-width="1"/><g transform="translate(1060,140)" stroke="#0a0a0a" fill="none" stroke-width="1.5"><circle r="34"/><line x1="0" y1="20" x2="0" y2="-20"/><polygon points="0,-30 7,-12 -7,-12" fill="#0a0a0a" stroke="none"/><text y="-44" text-anchor="middle" font-size="22" fill="#0a0a0a" stroke="none" font-family="monospace">N</text></g><g transform="translate(120,1400)"><rect width="200" height="8" fill="none" stroke="#0a0a0a"/><rect width="50" height="8" fill="#0a0a0a"/><rect x="100" width="50" height="8" fill="#0a0a0a"/><text y="34" font-size="20" font-family="monospace" fill="#0a0a0a">0 ——— 5M</text></g>
<text x="48" y="1404" font-family="monospace" font-size="26" letter-spacing="4" fill="#0a0a0a">PLAN 02 — 1:100</text>
<text x="48" y="1440" font-family="monospace" font-size="20" letter-spacing="3" fill="#8a8a8a">ATELIER NORTE — PLACEHOLDER</text>
</svg>