<svg xmlns="http://www.w3.org/2000/svg" width="1400" height="1000" viewBox="0 0 1400 1000">
<rect width="1400" height="1000" fill="#fafafa"/>
<g stroke="rgba(10,10,10,0.08)" stroke-width="1"><line x1="48" y1="0" x2="48" y2="1000"/><line x1="96" y1="0" x2="96" y2="1000"/><line x1="144" y1="0" x2="144" y2="1000"/><line x1="192" y1="0" x2="192" y2="1000"/><line x1="240" y1="0" x2="240" y2="1000"/><line x1="288" y1="0" x2="288" y2="1000"/><line x1="336" y1="0" x2="336" y2="1000"/><line x1="384" y1="0" x2="384" y2="1000"/><line x1="432" y1="0" x2="432" y2="1000"/><line x1="480" y1="0" x2="480" y2="1000"/><line x1="528" y1="0" x2="528" y2="1000"/><line x1="576" y1="0" x2="576" y2="1000"/><line x1="624" y1="0" x2="624" y2="1000"/><line x1="672" y1="0" x2="672" y2="1000"/><line x1="720" y1="0" x2="720" y2="1000"/><line x1="768" y1="0" x2="768" y2="1000"/><line x1="816" y1="0" x2="816" y2="1000"/><line x1="864" y1="0" x2="864" y2="1000"/><line x1="912" y1="0" x2="912" y2="1000"/><line x1="960" y1="0" x2="960" y2="1000"/><line x1="1008" y1="0" x2="1008" y2="1000"/><line x1="1056" y1="0" x2="1056" y2="1000"/><line x1="1104" y1="0" x2="1104" y2="1000"/><line x1="1152" y1="0" x2="1152" y2="1000"/><line x1="1200" y1="0" x2="1200" y2="1000"/><line x1="1248" y1="0" x2="1248" y2="1000"/><line x1="1296" y1="0" x2="1296" y2="1000"/><line x1="1344" y1="0" x2="1344" y2="1000"/><line x1="1392" y1="0" x2="1392" y2="1000"/><line x1="0" y1="48" x2="1400" y2="48"/><line x1="0" y1="96" x2="1400" y2="96"/><line x1="0" y1="144" x2="1400" y2="144"/><line x1="0" y1="192" x2="1400" y2="192"/><line x1="0" y1="240" x2="1400" y2="240"/><line x1="0" y1="288" x2="1400" y2="288"/><line x1="0" y1="336" x2="1400" y2="336"/><line x1="0" y1="384" x2="1400" y2="384"/><line x1="0" y1="432" x2="1400" y2="432"/><line x1="0" y1="480" x2="1400" y2="480"/><line x1="0" y1="528" x2="1400" y2="528"/><line x1="0" y1="576" x2="1400" y2="576"/><line x1="0" y1="624" x2="1400" y2="624"/><line x1="0" y1="672" x2="1400" y2="672"/><line x1="0" y1="720" x2="1400" y2="720"/><line x1="0" y1="768" x2="1400" y2="768"/><line x1="0" y1="816" x2="1400" y2="816"/><line x1="0" y1="864" x2="1400" y2="864"/><line x1="0" y1="912" x2="1400" y2="912"/><line x1="0" y1="960" x2="1400" y2="960"/></g>
<rect x="24" y="24" width="1352" height="952" fill="none" stroke="rgba(10,10,10,0.2)" stroke-width="1"/>
<line x1="-20" y1="730" x2="300" y2="610" stroke="#0a0a0a" stroke-width="0.75" opacity="0.25"/><line x1="70" y1="730" x2="390" y2="610" stroke="#0a0a0a" stroke-width="0.75" opacity="0.25"/><line x1="160" y1="730" x2="480" y2="610" stroke="#0a0a0a" stroke-width="0.75" opacity="0.25"/><line x1="250" y1="730" x2="570" y2="610" stroke="#0a0a0a" stroke-width="0.75" opacity="0.25"/><line x1="340" y1="730" x2="660" y2="610" stroke="#0a0a0a" stroke-width="0.75" opacity="0.25"/><line x1="430" y1="730" x2="750" y2="610" stroke="#0a0a0a" stroke-width="0.75" opacity="0.25"/><line x1="520" y1="730" x2="840" y2="610" stroke="#0a0a0a" stroke-width="0.75" opacity="0.25"/><line x1="610" y1="730" x2="930" y2="610" stroke="#0a0a0a" stroke-width="0.75" opacity="0.25"/><line x1="700" y1="730" x2="1020" y2="610" stroke="#0a0a0a" stroke-width="0.75" opacity="0.25"/><line x1="790" y1="730" x2="1110" y2="610" stroke="#0a0a0a" stroke-width="0.75" opacity="0.25"/><line x1="880" y1="730" x2="1200" y2="610" stroke="#0a0a0a" stroke-width="0.75" opacity="0.25"/><line x1="970" y1="730" x2="1290" y2="610" stroke="#0a0a0a" stroke-width="0.75" opacity="0.25"/><line x1="1060" y1="730" x2="1380" y2="610" stroke="#0a0a0a" stroke-width="0.75" opacity="0.25"/><line x1="1150" y1="730" x2="1470" y2="610" stroke="#0a0a0a" stroke-width="0.75" opacity="0.25"/><line x1="1240" y1="730" x2="1560" y2="610" stroke="#0a0a0a" stroke-width="0.75" opacity="0.25"/><line x1="1330" y1="730" x2="1650" y2="610" stroke="#0a0a0a" stroke-width="0.75" opacity="0.25"/><line x1="1420" y1="730" x2="1740" y2="610" stroke="#0a0a0a" stroke-width="0.75" opacity="0.25"/><polygon points="509,540,891,540,1102,426,911,426" fill="none" stroke="#0a0a0a" stroke-width="1" opacity="0.4"/><line x1="509" y1="540" x2="891" y2="540" stroke="#0a0a0a" stroke-width="2.5" opacity="1"/><line x1="891" y1="540" x2="1102" y2="426" stroke="#0a0a0a" stroke-width="2.5" opacity="1"/><line x1="1102" y1="426" x2="911" y2="426" stroke="#0a0a0a" stroke-width="1" opacity="1"/><line x1="911" y1="426" x2="509" y2="540" stroke="#0a0a0a" stroke-width="1" opacity="1"/><line x1="509" y1="184" x2="891" y2="184" stroke="#0a0a0a" stroke-width="2.5" opacity="1"/><line x1="891" y1="184" x2="1102" y2="70" stroke="#0a0a0a" stroke-width="2.5" opacity="1"/><line x1="1102" y1="70" x2="911" y2="70" stroke="#0a0a0a" stroke-width="1.5" opacity="1"/><line x1="911" y1="70" x2="509" y2="184" stroke="#0a0a0a" stroke-width="1.5" opacity="1"/><line x1="509" y1="540" x2="509" y2="184" stroke="#0a0a0a" stroke-width="2.5" opacity="1"/><line x1="891" y1="540" x2="891" y2="184" stroke="#0a0a0a" stroke-width="2.5" opacity="1"/><line x1="1102" y1="426" x2="1102" y2="70" stroke="#0a0a0a" stroke-width="2.5" opacity="1"/><line x1="911" y1="426" x2="911" y2="70" stroke="#0a0a0a" stroke-width="1.5" opacity="1"/><line x1="509" y1="469" x2="891" y2="469" stroke="#0a0a0a" stroke-width="1" opacity="0.7"/><line x1="891" y1="469" x2="1102" y2="355" stroke="#0a0a0a" stroke-width="1" opacity="0.7"/><line x1="509" y1="397" x2="891" y2="397" stroke="#0a0a0a" stroke-width="1" opacity="0.7"/><line x1="891" y1="397" x2="1102" y2="284" stroke="#0a0a0a" stroke-width="1" opacity="0.7"/><line x1="509" y1="326" x2="891" y2="326" stroke="#0a0a0a" stroke-width="1" opacity="0.7"/><line x1="891" y1="326" x2="1102" y2="212" stroke="#0a0a0a" stroke-width="1" opacity="0.7"/><line x1="509" y1="255" x2="891" y2="255" stroke="#0a0a0a" stroke-width="1" opacity="0.7"/><line x1="891" y1="255" x2="1102" y2="141" stroke="#0a0a0a" stroke-width="1" opacity="0.7"/><g transform="translate(348.59542962163687,600)" stroke="#0a0a0a" stroke-width="1.5" fill="none"><circle cx="0" cy="-96" r="10"/><line x1="0" y1="-86" x2="0" y2="-40"/><line x1="0" y1="-70" x2="-16" y2="-52"/><line x1="0" y1="-70" x2="16" y2="-52"/><line x1="0" y1="-40" x2="-14" y2="0"/><line x1="0" y1="-40" x2="14" y2="0"/></g>

</svg>