<svg xmlns="http://www.w3.org/2000/svg" width="1600" height="1200" viewBox="0 0 1600 1200">
<rect width="1600" height="1200" fill="#fafafa"/>
<g stroke="rgba(10,10,10,0.08)" stroke-width="1"><line x1="48" y1="0" x2="48" y2="1200"/><line x1="96" y1="0" x2="96" y2="1200"/><line x1="144" y1="0" x2="144" y2="1200"/><line x1="192" y1="0" x2="192" y2="1200"/><line x1="240" y1="0" x2="240" y2="1200"/><line x1="288" y1="0" x2="288" y2="1200"/><line x1="336" y1="0" x2="336" y2="1200"/><line x1="384" y1="0" x2="384" y2="1200"/><line x1="432" y1="0" x2="432" y2="1200"/><line x1="480" y1="0" x2="480" y2="1200"/><line x1="528" y1="0" x2="528" y2="1200"/><line x1="576" y1="0" x2="576" y2="1200"/><line x1="624" y1="0" x2="624" y2="1200"/><line x1="672" y1="0" x2="672" y2="1200"/><line x1="720" y1="0" x2="720" y2="1200"/><line x1="768" y1="0" x2="768" y2="1200"/><line x1="816" y1="0" x2="816" y2="1200"/><line x1="864" y1="0" x2="864" y2="1200"/><line x1="912" y1="0" x2="912" y2="1200"/><line x1="960" y1="0" x2="960" y2="1200"/><line x1="1008" y1="0" x2="1008" y2="1200"/><line x1="1056" y1="0" x2="1056" y2="1200"/><line x1="1104" y1="0" x2="1104" y2="1200"/><line x1="1152" y1="0" x2="1152" y2="1200"/><line x1="1200" y1="0" x2="1200" y2="1200"/><line x1="1248" y1="0" x2="1248" y2="1200"/><line x1="1296" y1="0" x2="1296" y2="1200"/><line x1="1344" y1="0" x2="1344" y2="1200"/><line x1="1392" y1="0" x2="1392" y2="1200"/><line x1="1440" y1="0" x2="1440" y2="1200"/><line x1="1488" y1="0" x2="1488" y2="1200"/><line x1="1536" y1="0" x2="1536" y2="1200"/><line x1="1584" y1="0" x2="1584" y2="1200"/><line x1="0" y1="48" x2="1600" y2="48"/><line x1="0" y1="96" x2="1600" y2="96"/><line x1="0" y1="144" x2="1600" y2="144"/><line x1="0" y1="192" x2="1600" y2="192"/><line x1="0" y1="240" x2="1600" y2="240"/><line x1="0" y1="288" x2="1600" y2="288"/><line x1="0" y1="336" x2="1600" y2="336"/><line x1="0" y1="384" x2="1600" y2="384"/><line x1="0" y1="432" x2="1600" y2="432"/><line x1="0" y1="480" x2="1600" y2="480"/><line x1="0" y1="528" x2="1600" y2="528"/><line x1="0" y1="576" x2="1600" y2="576"/><line x1="0" y1="624" x2="1600" y2="624"/><line x1="0" y1="672" x2="1600" y2="672"/><line x1="0" y1="720" x2="1600" y2="720"/><line x1="0" y1="768" x2="1600" y2="768"/><line x1="0" y1="816" x2="1600" y2="816"/><line x1="0" y1="864" x2="1600" y2="864"/><line x1="0" y1="912" x2="1600" y2="912"/><line x1="0" y1="960" x2="1600" y2="960"/><line x1="0" y1="1008" x2="1600" y2="1008"/><line x1="0" y1="1056" x2="1600" y2="1056"/><line x1="0" y1="1104" x2="1600" y2="1104"/><line x1="0" y1="1152" x2="1600" y2="1152"/></g>
<rect x="24" y="24" width="1552" height="1152" fill="none" stroke="rgba(10,10,10,0.2)" stroke-width="1"/>
<rect x="1237" y="224" width="483" height="244" fill="none" stroke="#0a0a0a" stroke-width="3"/><rect x="1251" y="238" width="455" height="216" fill="none" stroke="#0a0a0a" stroke-width="1" opacity="0.45"/><line x1="1349" y1="224" x2="1349" y2="284" stroke="#0a0a0a" stroke-width="1.5"/><path d="M 1349 224 A 60 60 0 0 1 1409 284" fill="none" stroke="#0a0a0a" stroke-width="1"/><line x1="1382" y1="468" x2="1575" y2="468" stroke="#fafafa" stroke-width="7"/><line x1="1382" y1="468" x2="1575" y2="468" stroke="#0a0a0a" stroke-width="1"/><rect x="682" y="141" width="437" height="199" fill="none" stroke="#0a0a0a" stroke-width="3"/><rect x="696" y="155" width="409" height="171" fill="none" stroke="#0a0a0a" stroke-width="1" opacity="0.45"/><line x1="728" y1="141" x2="728" y2="201" stroke="#0a0a0a" stroke-width="1.5"/><path d="M 728 141 A 60 60 0 0 1 788 201" fill="none" stroke="#0a0a0a" stroke-width="1"/><line x1="813" y1="339" x2="988" y2="339" stroke="#fafafa" stroke-width="7"/><line x1="813" y1="339" x2="988" y2="339" stroke="#0a0a0a" stroke-width="1"/><rect x="220" y="295" width="367" height="256" fill="none" stroke="#0a0a0a" stroke-width="3"/><rect x="234" y="309" width="339" height="228" fill="none" stroke="#0a0a0a" stroke-width="1" opacity="0.45"/><line x1="266" y1="295" x2="266" y2="355" stroke="#0a0a0a" stroke-width="1.5"/><path d="M 266 295 A 60 60 0 0 1 326 355" fill="none" stroke="#0a0a0a" stroke-width="1"/><line x1="330" y1="551" x2="477" y2="551" stroke="#fafafa" stroke-width="7"/><line x1="330" y1="551" x2="477" y2="551" stroke="#0a0a0a" stroke-width="1"/><rect x="605" y="625" width="452" height="315" fill="none" stroke="#0a0a0a" stroke-width="3"/><rect x="619" y="639" width="424" height="287" fill="none" stroke="#0a0a0a" stroke-width="1" opacity="0.45"/><line x1="944" y1="625" x2="944" y2="685" stroke="#0a0a0a" stroke-width="1.5"/><path d="M 944 625 A 60 60 0 0 1 1004 685" fill="none" stroke="#0a0a0a" stroke-width="1"/><line x1="740" y1="939" x2="921" y2="939" stroke="#fafafa" stroke-width="7"/><line x1="740" y1="939" x2="921" y2="939" stroke="#0a0a0a" stroke-width="1"/><g transform="translate(1460,140)" stroke="#0a0a0a" fill="none" stroke-width="1.5"><circle r="34"/><line x1="0" y1="20" x2="0" y2="-20"/><polygon points="0,-30 7,-12 -7,-12" fill="#0a0a0a" stroke="none"/><text y="-44" text-anchor="middle" font-size="22" fill="#0a0a0a" stroke="none" font-family="monospace">N</text></g><g transform="translate(120,1100)"><rect width="200" height="8" fill="none" stroke="#0a0a0a"/><rect width="50" height="8" fill="#0a0a0a"/><rect x="100" width="50" height="8" fill="#0a0a0a"/><text y="34" font-size="20" font-family="monospace" fill="#0a0a0a">0 ——— 5M</text></g>
<text x="48" y="1104" font-family="monospace" font-size="26" letter-spacing="4" fill="#0a0a0a">PLAN 03 — 1:100</text>
<text x="48" y="1140" font-family="monospace" font-size="20" letter-spacing="3" fill="#8a8a8a">PROJECT 01 — PLACEHOLDER</text>
</svg>